<?xml version="1.0" encoding="UTF-8"?>
<svg version="1.1" xmlns="http://www.w3.org/2000/svg" width="445" height="102">
<path d="M0 0 C146.85 0 293.7 0 445 0 C445 33.66 445 67.32 445 102 C298.15 102 151.3 102 0 102 C0 68.34 0 34.68 0 0 Z " fill="#030342" transform="translate(0,0)"/>
<path d="M0 0 C37.29 0 74.58 0 113 0 C113 33.66 113 67.32 113 102 C75.71 102 38.42 102 0 102 C0 68.34 0 34.68 0 0 Z " fill="#4141DC" transform="translate(0,0)"/>
<path d="M0 0 C8.22953965 5.69369313 13.98716669 13.17590473 15.9375 23.0625 C17.02414831 35.32788672 16.22125852 47.83867925 8.7421875 58.08984375 C3.56660035 63.7471414 -3.12822093 67.60877319 -10.78125 68.3125 C-20.02071754 68.68581182 -26.2052179 66.58265613 -33.375 60.8125 C-39.96102504 54.68474708 -42.94251237 46.33981767 -43.43359375 37.42578125 C-43.72159314 25.52531878 -42.72326284 15.96455423 -35.375 6.125 C-26.62653916 -2.84327141 -11.43768481 -5.69898531 0 0 Z " fill="#030342" transform="translate(403.0625,19.9375)"/>
<path d="M0 0 C1.2367749 -0.00430527 1.2367749 -0.00430527 2.49853516 -0.00869751 C4.23666066 -0.01073322 5.97480933 -0.0052379 7.71289062 0.00732422 C10.36640879 0.0233855 13.01840395 0.00745941 15.671875 -0.01171875 C17.36458668 -0.00973623 19.05729742 -0.00589237 20.75 0 C21.93456787 -0.00910904 21.93456787 -0.00910904 23.14306641 -0.0184021 C29.00859447 0.05612338 32.2648735 1.288311 36.375 5.3984375 C36.6813859 8.13278712 36.8863336 10.78123571 37 13.5234375 C37.05800781 14.65458984 37.05800781 14.65458984 37.1171875 15.80859375 C37.21151031 17.67146934 37.29434662 19.53492005 37.375 21.3984375 C38.24382812 20.72296875 39.11265625 20.0475 40.0078125 19.3515625 C41.17179368 18.45041578 42.33586077 17.54938003 43.5 16.6484375 C44.06976563 16.205 44.63953125 15.7615625 45.2265625 15.3046875 C55.45818015 7.3984375 55.45818015 7.3984375 59.375 7.3984375 C59.375 19.2784375 59.375 31.1584375 59.375 43.3984375 C54.375 42.3984375 54.375 42.3984375 51.375 40.3984375 C51.375 39.7384375 51.375 39.0784375 51.375 38.3984375 C50.54742187 38.26115234 50.54742187 38.26115234 49.703125 38.12109375 C46.72440124 37.1964899 44.64721922 35.66122773 42.125 33.8359375 C41.23296875 33.19527344 40.3409375 32.55460937 39.421875 31.89453125 C38.74640625 31.40082031 38.0709375 30.90710938 37.375 30.3984375 C37.42720703 31.59339844 37.42720703 31.59339844 37.48046875 32.8125 C37.76516074 43.95615791 37.76516074 43.95615791 34.375 48.3984375 C29.90123415 50.8415165 25.49792067 50.73671306 20.53125 50.76953125 C19.68453735 50.77855972 18.83782471 50.7875882 17.9654541 50.79689026 C16.18029296 50.81135804 14.39507921 50.82027084 12.60986328 50.82397461 C9.8835338 50.83590017 7.15944806 50.88514095 4.43359375 50.93554688 C2.6953235 50.9450088 0.95703941 50.95224494 -0.78125 50.95703125 C-1.99862854 50.98632973 -1.99862854 50.98632973 -3.24060059 51.01622009 C-7.51142857 50.98225809 -9.1398846 50.77926576 -12.61523438 48.05102539 C-15.86702462 43.75915209 -15.78489592 40.01277354 -15.79296875 34.84375 C-15.79629715 34.10518768 -15.79962555 33.36662537 -15.80305481 32.60568237 C-15.80811412 31.04393129 -15.81046344 29.48216942 -15.81030273 27.92041016 C-15.81248555 25.53920524 -15.83064119 23.1584665 -15.84960938 20.77734375 C-15.8525443 19.25781408 -15.85452843 17.73828221 -15.85546875 16.21875 C-15.86265427 15.51025909 -15.86983978 14.80176819 -15.87724304 14.07180786 C-15.85895686 10.08577831 -15.67143225 6.86470962 -13.625 3.3984375 C-9.4977232 -0.13853824 -5.19548729 -0.03995204 0 0 Z " fill="#4343DD" transform="translate(40.625,24.6015625)"/>
<path d="M0 0 C1.2367749 -0.00430527 1.2367749 -0.00430527 2.49853516 -0.00869751 C4.23666066 -0.01073322 5.97480933 -0.0052379 7.71289062 0.00732422 C10.36640879 0.0233855 13.01840395 0.00745941 15.671875 -0.01171875 C17.36458668 -0.00973623 19.05729742 -0.00589237 20.75 0 C21.93456787 -0.00910904 21.93456787 -0.00910904 23.14306641 -0.0184021 C29.00859447 0.05612338 32.2648735 1.288311 36.375 5.3984375 C36.6813859 8.13278712 36.8863336 10.78123571 37 13.5234375 C37.05800781 14.65458984 37.05800781 14.65458984 37.1171875 15.80859375 C37.21151031 17.67146934 37.29434662 19.53492005 37.375 21.3984375 C38.24382812 20.72296875 39.11265625 20.0475 40.0078125 19.3515625 C41.17179368 18.45041578 42.33586077 17.54938003 43.5 16.6484375 C44.06976563 16.205 44.63953125 15.7615625 45.2265625 15.3046875 C55.45818015 7.3984375 55.45818015 7.3984375 59.375 7.3984375 C59.375 19.2784375 59.375 31.1584375 59.375 43.3984375 C54.375 42.3984375 54.375 42.3984375 51.375 40.3984375 C51.375 39.7384375 51.375 39.0784375 51.375 38.3984375 C50.54742187 38.26115234 50.54742187 38.26115234 49.703125 38.12109375 C46.72440124 37.1964899 44.64721922 35.66122773 42.125 33.8359375 C41.23296875 33.19527344 40.3409375 32.55460937 39.421875 31.89453125 C38.74640625 31.40082031 38.0709375 30.90710938 37.375 30.3984375 C37.42720703 31.59339844 37.42720703 31.59339844 37.48046875 32.8125 C37.76516074 43.95615791 37.76516074 43.95615791 34.375 48.3984375 C29.90123415 50.8415165 25.49792067 50.73671306 20.53125 50.76953125 C19.68453735 50.77855972 18.83782471 50.7875882 17.9654541 50.79689026 C16.18029296 50.81135804 14.39507921 50.82027084 12.60986328 50.82397461 C9.8835338 50.83590017 7.15944806 50.88514095 4.43359375 50.93554688 C2.6953235 50.9450088 0.95703941 50.95224494 -0.78125 50.95703125 C-1.99862854 50.98632973 -1.99862854 50.98632973 -3.24060059 51.01622009 C-7.51142857 50.98225809 -9.1398846 50.77926576 -12.61523438 48.05102539 C-15.86702462 43.75915209 -15.78489592 40.01277354 -15.79296875 34.84375 C-15.79629715 34.10518768 -15.79962555 33.36662537 -15.80305481 32.60568237 C-15.80811412 31.04393129 -15.81046344 29.48216942 -15.81030273 27.92041016 C-15.81248555 25.53920524 -15.83064119 23.1584665 -15.84960938 20.77734375 C-15.8525443 19.25781408 -15.85452843 17.73828221 -15.85546875 16.21875 C-15.86265427 15.51025909 -15.86983978 14.80176819 -15.87724304 14.07180786 C-15.85895686 10.08577831 -15.67143225 6.86470962 -13.625 3.3984375 C-9.4977232 -0.13853824 -5.19548729 -0.03995204 0 0 Z M-11.625 7.3984375 C-11.8247883 10.08822885 -11.9048128 12.67280585 -11.890625 15.36328125 C-11.89349518 16.5469503 -11.89349518 16.5469503 -11.89642334 17.75453186 C-11.89778533 19.4248181 -11.8940879 21.09511492 -11.88574219 22.76538086 C-11.8750568 25.3223452 -11.88562939 27.87860468 -11.8984375 30.43554688 C-11.89711563 32.05729322 -11.89455266 33.67903912 -11.890625 35.30078125 C-11.89467346 36.06647934 -11.89872192 36.83217743 -11.90289307 37.62107849 C-11.869398 41.41493001 -11.78104644 43.16436783 -9.625 46.3984375 C-6.60959643 46.71479204 -3.80385641 46.84239331 -0.78515625 46.83203125 C0.09274063 46.8372731 0.97063751 46.84251495 1.87513733 46.84791565 C3.73372336 46.85434531 5.59235004 46.85298666 7.45092773 46.84448242 C10.29809983 46.8359805 13.14326114 46.86470627 15.99023438 46.89648438 C17.79427023 46.89809661 19.59830965 46.89751842 21.40234375 46.89453125 C22.25553696 46.90576523 23.10873016 46.91699921 23.98777771 46.92857361 C28.5232126 46.92869753 28.5232126 46.92869753 32.41308594 44.8659668 C33.76820427 41.38977874 33.78409858 38.09663057 33.73828125 34.421875 C33.73877975 33.65541656 33.73927826 32.88895813 33.73979187 32.09927368 C33.73745663 30.48379922 33.72776048 28.86832076 33.71118164 27.25292969 C33.68751551 24.77506182 33.69063352 22.29826522 33.69726562 19.8203125 C33.69169101 18.24999356 33.6845825 16.67967917 33.67578125 15.109375 C33.67669266 14.36666351 33.67760406 13.62395203 33.67854309 12.85873413 C33.75479267 8.67126822 33.75479267 8.67126822 31.375 5.3984375 C28.31321227 5.19829597 25.34380708 5.11872678 22.28125 5.1328125 C21.3787854 5.13089905 20.4763208 5.1289856 19.54650879 5.12701416 C17.63663454 5.12565191 15.72675104 5.12935112 13.81689453 5.13769531 C10.8868335 5.14839429 7.95738562 5.13780139 5.02734375 5.125 C3.17447781 5.12632159 1.32161225 5.12888397 -0.53125 5.1328125 C-1.41147827 5.12876404 -2.29170654 5.12471558 -3.1986084 5.12054443 C-7.89466149 4.92884077 -7.89466149 4.92884077 -11.625 7.3984375 Z " fill="#EEEEFB" transform="translate(40.625,24.6015625)"/>
<path d="M0 0 C2.64 0 5.28 0 8 0 C8 11.22 8 22.44 8 34 C22.19 34 36.38 34 51 34 C51 23.11 51 12.22 51 1 C53.31 1 55.62 1 58 1 C58 24.76 58 48.52 58 73 C55.69 73 53.38 73 51 73 C51 60.79 51 48.58 51 36 C36.48 36 21.96 36 7 36 C7 48.21 7 60.42 7 73 C4.69 73 2.38 73 0 73 C0 48.91 0 24.82 0 0 Z " fill="#F3F3F6" transform="translate(272,16)"/>
<path d="M0 0 C6.28853119 5.23843097 10.9492785 12.98984225 12.78515625 20.9453125 C12.86765625 22.1828125 12.95015625 23.4203125 13.03515625 24.6953125 C13.14730469 26.00628906 13.14730469 26.00628906 13.26171875 27.34375 C13.7906231 37.94967409 10.74261293 46.9227014 3.97265625 55.1328125 C-3.20278104 62.52495763 -12.34521548 66.7427054 -22.59960938 66.93676758 C-34.74895551 66.98584735 -43.61892972 63.81777129 -52.65234375 55.5078125 C-61.00802913 46.78883645 -62.53628914 36.67088774 -62.30078125 25.1015625 C-61.817174 15.79711886 -57.59168896 8.28035792 -51.1953125 1.66796875 C-35.97652894 -11.79172599 -16.21945256 -11.3850831 0 0 Z M-46.27734375 2.7578125 C-54.54001415 13.82178711 -55.14752148 25.39165901 -53.96484375 38.6953125 C-52.62264187 47.78267935 -48.11074462 54.41371029 -40.96484375 60.0703125 C-33.98300887 64.89985242 -27.32155251 65.53836004 -18.96484375 64.6953125 C-11.33076513 62.78949997 -4.78980818 59.10556282 -0.49609375 52.40234375 C5.4184805 41.31251703 6.75030888 28.90418566 4.453125 16.5703125 C1.83348975 8.14920191 -4.02857678 0.84359197 -11.46484375 -3.9296875 C-22.99287073 -8.76775505 -37.66221215 -6.07377969 -46.27734375 2.7578125 Z " fill="#F3F3F6" transform="translate(413.96484375,23.3046875)"/>
<path d="M0 0 C10.56 0 21.12 0 32 0 C32 1.65 32 3.3 32 5 C30.08329274 4.85470122 28.16663703 4.70872231 26.25 4.5625 C25.18265625 4.48128906 24.1153125 4.40007813 23.015625 4.31640625 C17.67563091 3.89564796 12.3380422 3.44483685 7 3 C7 13.23 7 23.46 7 34 C13.435 33.505 13.435 33.505 20 33 C23.3438372 32.96404476 26.66093155 32.93216339 30 33 C30 34.32 30 35.64 30 37 C28.41677806 37.02804921 26.833393 37.04684498 25.25 37.0625 C24.36828125 37.07410156 23.4865625 37.08570313 22.578125 37.09765625 C17.37447993 36.95563537 12.18760143 36.43230012 7 36 C7 47.55 7 59.1 7 71 C13.73141683 70.01582207 13.73141683 70.01582207 20.46191406 69.02539062 C21.30463867 68.90357422 22.14736328 68.78175781 23.015625 68.65625 C24.30388184 68.46772461 24.30388184 68.46772461 25.61816406 68.27539062 C28 68 28 68 32 68 C32 69.65 32 71.3 32 73 C21.44 73 10.88 73 0 73 C0 48.91 0 24.82 0 0 Z " fill="#F0F0F3" transform="translate(140,16)"/>
<path d="M0 0 C0 1.98 0 3.96 0 6 C-1.99982166 5.00457307 -3.98786479 4.0066768 -5.9453125 2.9296875 C-14.78094936 -1.34562066 -25.70249747 -1.70181575 -35.13671875 0.84765625 C-42.56125885 4.20177467 -47.75549714 10.00310418 -51.4375 17.1875 C-55.01898048 27.23121701 -54.71332248 40.97284302 -50.9375 50.875 C-46.31400033 59.99212575 -39.53740173 64.82086609 -30 68 C-20.36862527 68.77304455 -10.81322111 68.36512482 -2.8203125 62.36328125 C-1 61 -1 61 1 61 C0.875 63.8125 0.875 63.8125 0 67 C-6.58010439 71.43774482 -14.15878882 71.20427208 -21.8125 71.25 C-22.66392578 71.270625 -23.51535156 71.29125 -24.39257812 71.3125 C-35.65745126 71.38113594 -43.53601594 67.30741481 -52 60 C-54.37664433 57.50550554 -56.23161785 54.95109433 -58 52 C-58.41121094 51.38253906 -58.82242188 50.76507813 -59.24609375 50.12890625 C-63.82458999 42.00167937 -63.25235793 30.82457593 -61.33984375 21.9296875 C-57.26065026 10.66334357 -49.02773457 3.17947651 -38.375 -1.8125 C-25.42022599 -6.37066123 -12.67790455 -3.92787084 0 0 Z " fill="#F2F2F5" transform="translate(251,19)"/>
<path d="M0 0 C0.99 0 1.98 0 3 0 C3 33.66 3 67.32 3 102 C2.01 102 1.02 102 0 102 C0 68.34 0 34.68 0 0 Z " fill="#3E3EC7" transform="translate(110,0)"/>
<path d="M0 0 C0 7.92 0 15.84 0 24 C-4.38383839 21.49494949 -8.37288809 19.14533999 -12.4375 16.25 C-13.30246094 15.63640625 -14.16742188 15.0228125 -15.05859375 14.390625 C-15.69925781 13.93171875 -16.33992188 13.4728125 -17 13 C-5.21875 0 -5.21875 0 0 0 Z " fill="#4545DD" transform="translate(96,38)"/>
<path d="M0 0 C0 1.98 0 3.96 0 6 C-1.99264163 5.0103659 -3.96887099 4.01744243 -5.91015625 2.9296875 C-14.51515558 -1.28691834 -23.66712171 -0.34495238 -33 0 C-33 -0.66 -33 -1.32 -33 -2 C-33.66 -2.33 -34.32 -2.66 -35 -3 C-22.62290152 -5.302716 -11.8370491 -3.66735684 0 0 Z " fill="#E7E7ED" transform="translate(251,19)"/>
<path d="M0 0 C-0.125 2.8125 -0.125 2.8125 -1 6 C-5.58009147 9.32056632 -10.51588564 9.6465793 -16 10 C-16.33 9.01 -16.66 8.02 -17 7 C-16.25234375 6.74605469 -15.5046875 6.49210937 -14.734375 6.23046875 C-13.74953125 5.88628906 -12.7646875 5.54210937 -11.75 5.1875 C-10.77546875 4.85105469 -9.8009375 4.51460938 -8.796875 4.16796875 C-5.71852614 2.88245715 -3.28554701 0 0 0 Z " fill="#E4E4EA" transform="translate(252,80)"/>
<path d="M0 0 C-0.99 0.495 -0.99 0.495 -2 1 C-2 1.66 -2 2.32 -2 3 C-9.92 3.495 -9.92 3.495 -18 4 C-18 3.34 -18 2.68 -18 2 C-18.66 1.67 -19.32 1.34 -20 1 C-13.34362157 -0.23839599 -6.7528064 -0.09139136 0 0 Z " fill="#D4D4DF" transform="translate(236,15)"/>
<path d="M0 0 C-1.05078125 1.45703125 -1.05078125 1.45703125 -3 3 C-6.35546875 3.51171875 -6.35546875 3.51171875 -10.1875 3.6875 C-12.09595703 3.78611328 -12.09595703 3.78611328 -14.04296875 3.88671875 C-15.01878906 3.92410156 -15.99460937 3.96148438 -17 4 C-17 3.34 -17 2.68 -17 2 C-17.66 1.67 -18.32 1.34 -19 1 C-12.65758005 -0.15316726 -6.43311296 -0.09507063 0 0 Z " fill="#C6C6D4" transform="translate(397,15)"/>
<path d="M0 0 C0.66 0.33 1.32 0.66 2 1 C1.67 1.99 1.34 2.98 1 4 C-0.65 4.33 -2.3 4.66 -4 5 C-4.33 4.01 -4.66 3.02 -5 2 C-2.625 0.9375 -2.625 0.9375 0 0 Z " fill="#DDDDE5" transform="translate(403,84)"/>
</svg>
